<svg fill="#000" viewBox="0 0 45.43 40.91" xmlns="http://www.w3.org/2000/svg"><path d="m22.54 26.37c-4.49 0-7.17-5.42-7.71-7a2.11 2.11 0 0 1 -.74-.77 4.56 4.56 0 0 1 -.6-3.7 2.7 2.7 0 0 1 .77-1.13 14.42 14.42 0 0 1 .42-3.52c.49-1.79 2.77-5.25 7.86-5.25s7.36 3.46 7.85 5.29a14 14 0 0 1 .42 3.48 2.42 2.42 0 0 1 .71 1c.44 1 .25 2.34-.56 3.91a2.09 2.09 0 0 1 -.74.82c-.59 1.59-3.22 6.87-7.68 6.87zm-6.9-11.11a.77.77 0 0 0 -.28.39 3 3 0 0 0 .49 2 1.8 1.8 0 0 1 .8.85.76.76 0 0 1 0 .11c.35 1.21 2.69 5.72 5.85 5.72s5.49-4.51 5.84-5.72a1.48 1.48 0 0 1 .69-.84c.1-.06.1-.07.11-.09.69-1.35.59-2 .52-2.18a.49.49 0 0 0 -.23-.27 1 1 0 0 1 -.67-1 12.79 12.79 0 0 0 -.34-3.48c0-.14-1.13-3.8-5.92-3.8s-5.89 3.66-5.93 3.81a13.17 13.17 0 0 0 -.34 3.47 1 1 0 0 1 -.63 1z"/><path d="m35.84 40.91h-25.75a2.84 2.84 0 0 1 -2.09-.91 3.42 3.42 0 0 1 -.93-2.52c.24-4.21 1.29-9.33 7.26-11.59a12 12 0 0 0 3.85-2.23 1 1 0 0 1 1.39 1.44 14.06 14.06 0 0 1 -4.54 2.66c-3.86 1.46-5.65 4.41-6 9.84a1.51 1.51 0 0 0 .39 1 .91.91 0 0 0 .61.3h25.81a.94.94 0 0 0 .63-.31 1.37 1.37 0 0 0 .38-1c-.34-5.49-2.18-8.58-6-10a16.52 16.52 0 0 1 -4.6-2.56 1 1 0 0 1 1.31-1.52 13.91 13.91 0 0 0 4 2.2c6 2.28 7 7.81 7.26 11.77a3.34 3.34 0 0 1 -.9 2.52 2.84 2.84 0 0 1 -2.08.91z"/><path d="m8.87 33.91h-5.87a3.23 3.23 0 0 1 -3-3.21c0-3.27-.12-7.76 5.35-9.83a27.23 27.23 0 0 0 3.76-1.81 15.48 15.48 0 0 1 -3.29-4.63 2.07 2.07 0 0 1 -.74-.78 4.53 4.53 0 0 1 -.59-3.65 2.65 2.65 0 0 1 .77-1.14 14.54 14.54 0 0 1 .42-3.53c.49-1.87 2.77-5.33 7.86-5.33a7.84 7.84 0 0 1 7.85 5.55 1 1 0 1 1 -1.93.45 5.85 5.85 0 0 0 -5.92-4c-4.79 0-5.89 3.66-5.93 3.82a13.17 13.17 0 0 0 -.34 3.47 1 1 0 0 1 -.62 1 .75.75 0 0 0 -.29.4 3 3 0 0 0 .49 2l.09.07a1.72 1.72 0 0 1 .71.81.42.42 0 0 1 0 .1 12.31 12.31 0 0 0 3.7 4.63 1 1 0 0 1 0 1.69 30.7 30.7 0 0 1 -5.36 2.74c-3.79 1.47-3.99 4.1-3.99 7.94 0 .61.52 1.24 1 1.24h5.87a1 1 0 1 1 0 2z"/><path d="m42.42 33.91h-5.55a1 1 0 0 1 0-2h5.55c.47 0 1-.63 1-1.24 0-3.84-.2-6.47-4.06-7.93a26.8 26.8 0 0 1 -5.36-2.89 1 1 0 0 1 -.41-.91 1 1 0 0 1 .58-.81c1.7-.77 3.4-3.76 3.6-4.45a.42.42 0 0 1 0-.1 1.71 1.71 0 0 1 .7-.81l.09-.06a3 3 0 0 0 .5-2.05.69.69 0 0 0 -.32-.41 1.06 1.06 0 0 1 -.59-1 13 13 0 0 0 -.35-3.48c0-.15-1.13-3.81-5.92-3.81a5.58 5.58 0 0 0 -5.76 4 1 1 0 0 1 -1.95-.44 7.58 7.58 0 0 1 7.72-5.52c5.11 0 7.36 3.46 7.86 5.29a14.54 14.54 0 0 1 .42 3.53 2.74 2.74 0 0 1 .77 1.18 4.54 4.54 0 0 1 -.61 3.69 2 2 0 0 1 -.73.78 13.28 13.28 0 0 1 -3.23 4.53 23.09 23.09 0 0 0 3.7 1.85c5.46 2.07 5.4 6.56 5.35 9.83a3.23 3.23 0 0 1 -3 3.23z"/></svg>